# xmcd
# 
# Track frame offsets:
#     150
#     18677
#     37519
#     55043
#     69064
#     83133
#     100903
#     116903
#     132321
#     150461
#     165530
#     194303
# 
# Disc length: 2645
# 
# Revision: 4
# Processed by: cddbd v1.5.2PL0 Copyright (c) Steve Scherf et al.
# Submitted via: fre:ac v1.0.31
# 
DISCID=8d0a530c
DTITLE=De Palmas - Un Homme Sans Racines
DYEAR=2004
DGENRE=Pop
TTITLE0=Plus D'importance
TTITLE1=Elle Danse Seule
TTITLE2=Au Paradis
TTITLE3=Un Homme Sans Racines
TTITLE4=Elle Habite Ici
TTITLE5=Dans La Cour
TTITLE6=Encore Une Fois
TTITLE7=Dans Mon Rêve
TTITLE8=Faire Semblant
TTITLE9=Je Ne Tiendrai Pas
TTITLE10=Silverado
TTITLE11=Données
EXTD=YEAR: 2004
EXTT0=
EXTT1=
EXTT2=
EXTT3=
EXTT4=
EXTT5=
EXTT6=
EXTT7=
EXTT8=
EXTT9=
EXTT10=
EXTT11=
PLAYORDER=
